<svg width="65" height="25" viewBox="0 0 65 25" xmlns="http://www.w3.org/2000/svg"
    xmlns:xlink="http://www.w3.org/1999/xlink">
    <g mask="url(#b)" fill="#FFF">
        <path class="st0"
            d="M41.1,11.9c1.2-0.8,1.7-1.9,1.7-3.3v0c0-1.1-0.4-2-1.1-2.8c-0.9-0.9-2.4-1.4-4.2-1.4H30v16h7.6
            c3.8,0,6-1.6,6-4.5v0C43.7,13.9,42.9,12.7,41.1,11.9z M37.7,16.8h-3.8v-2.9h3.7c1.5,0,2.3,0.5,2.3,1.4v0
            C39.8,16.3,39.1,16.8,37.7,16.8L37.7,16.8z M33.9,10.5V7.7H37c0.9,0,2,0.2,2,1.4v0c0,0.9-0.7,1.4-2.2,1.4H33.9z M56.5,4.3h-6.3
            l0,16l6.3,0c2.4,0,4.6-0.8,6.1-2.3c1.5-1.5,2.4-3.5,2.4-5.7v0C65,7.6,61.4,4.3,56.5,4.3 M60.9,12.3L60.9,12.3
            c0,2.7-1.8,4.4-4.4,4.4h-2.4V7.8h2.4C59.2,7.8,60.9,9.6,60.9,12.3"></path>
        <path class="st1" d="M46.7,4.2c1.1,0,2,0.9,1.9,2v14.1h-3.9v-16L46.7,4.2L46.7,4.2z"></path>
        <path class="st0"
            d="M13.8,14.7c-2.1,3.3,4.6,3.4,1.5,9.6c-0.1,0-0.2,0-0.3,0c-7.1,1-13.8-3.9-14.8-11.1C-0.3,10.1,0.5,6.7,2.3,4
            C2,11.6,15.7,11.6,13.8,14.7 M16.7,24c0.7-1.3,2.2-3.2,5.5-7.1c4.9-5.8-9.6-3.8-12.1-8.2C8,5.1,15.7,2.5,20.3,0.5
            c3.1,2.1,5.2,5.3,5.7,9C27,16.1,22.9,22.2,16.7,24 M12.4,7.5C11.9,7.8,12.8,8.9,15,9C17.3,9,14.4,6.5,12.4,7.5 M17.3,8.7
            c-1.7-0.5-0.6,0.8,0.2,0.9C18.4,9.7,18.5,9.1,17.3,8.7 M19.1,10c-0.6,0-0.7,0.3,0.2,0.5C20.5,10.8,19.7,10.1,19.1,10"></path>
    </g>
</svg>