<?xml version="1.0" encoding="utf-8"?>
<svg xmlns="http://www.w3.org/2000/svg" viewBox="-1057.5917 23.4589 795.929 511.2568"
    width="795.929px" height="511.257px">
    <g transform="matrix(1, 0, 0, 1, -1771.5226745605469, -341.5643615722656)">
        <path
            d="M 1498.22 830.52 C 1498.22 830.52 1274 741.01 1111.9 869.03 C 1111.9 869.03 1302.15 801.44 1509.86 876.28 L 1498.21 830.52 L 1498.22 830.52 Z"
            style="stroke-linecap: round; stroke-width: 4px; paint-order: stroke; fill: rgb(255, 157, 33); stroke: rgb(255, 255, 255);" />
        <path
            d="M 1481.72 804.28 L 1452.6 752.09 C 1228.38 708.88 1117.05 855.97 1117.05 855.97 C 1304.09 734.33 1481.72 804.28 1481.72 804.28 Z"
            style="stroke-linecap: round; stroke-width: 4px; paint-order: stroke; fill: rgb(255, 157, 33); stroke: rgb(255, 255, 255);" />
        <path
            d="M 1425.63 733.35 L 1386.59 689.05 C 1168.78 689.05 1117.04 843.86 1117.04 843.86 C 1207.02 707.92 1425.63 733.35 1425.63 733.35 Z"
            style="stroke-linecap: round; stroke-width: 4px; paint-order: stroke; fill: rgb(255, 157, 33); stroke: rgb(255, 255, 255);" />
        <path
            d="M 725.581 830.52 L 713.931 876.28 C 921.651 801.45 1111.89 869.03 1111.89 869.03 C 949.791 741.01 725.571 830.52 725.571 830.52 L 725.581 830.52 Z"
            style="stroke-linecap: round; stroke-width: 4px; paint-order: stroke; fill: rgb(255, 157, 33); stroke: rgb(255, 255, 255);" />
        <path
            d="M 1106.76 855.97 C 1106.76 855.97 995.431 708.88 771.211 752.09 L 742.091 804.28 C 742.091 804.28 919.721 734.33 1106.76 855.97 Z"
            style="stroke-linecap: round; stroke-width: 4px; paint-order: stroke; fill: rgb(255, 157, 33); stroke: rgb(255, 255, 255);" />
        <path
            d="M 1106.76 843.87 C 1106.76 843.87 1055.02 689.06 837.211 689.06 L 798.171 733.36 C 798.171 733.36 1016.78 707.94 1106.76 843.87 Z"
            style="stroke-linecap: round; stroke-width: 4px; paint-order: stroke; fill: rgb(255, 157, 33); stroke: rgb(255, 255, 255);" />
        <path
            d="M 1112.47 739.58 C 1094.17 715.66 1006.07 584.58 1084.23 366.31 C 1084.97 364.25 1088.02 364.8 1087.96 366.99 C 1086.72 413.55 1094.91 473.71 1114.61 529.04 C 1115.09 530.38 1116.81 530.76 1117.8 529.74 C 1145.68 501.06 1205.46 442.98 1299.49 458.84 C 1301.61 459.2 1301.63 462.25 1299.52 462.63 C 1251.73 471.43 1128.63 499.8 1115.9 738.5 C 1115.8 740.29 1113.54 741 1112.46 739.58 L 1112.47 739.58 Z"
            style="stroke-linecap: round; stroke-width: 4px; paint-order: stroke; fill: rgb(255, 157, 33); stroke: rgb(255, 255, 255);" />
        <path
            d="M 1160.84 449.22 C 1160.84 461.89 1150.57 472.16 1137.9 472.16 C 1125.23 472.16 1114.96 461.89 1114.96 449.22 C 1114.96 436.55 1125.24 426.29 1137.9 426.29 C 1150.56 426.29 1160.84 436.56 1160.84 449.22 Z"
            style="stroke-linecap: round; stroke-width: 4px; paint-order: stroke; fill: rgb(255, 157, 33); stroke: rgb(255, 255, 255);" />
        <path
            d="M 1271.8 575.92 C 1271.8 585.99 1263.64 594.14 1253.59 594.14 C 1243.54 594.14 1235.37 585.99 1235.37 575.92 C 1235.37 565.85 1243.53 557.71 1253.59 557.71 C 1263.65 557.71 1271.8 565.86 1271.8 575.92 Z"
            style="stroke-linecap: round; stroke-width: 4px; paint-order: stroke; fill: rgb(255, 157, 33); stroke: rgb(255, 255, 255);" />
        <path
            d="M 1209.89 614.17 C 1215.71 580.71 1227.45 548.01 1240.78 522.04 C 1241.68 520.28 1239.67 518.45 1238 519.51 C 1228.56 525.52 1219.04 533 1209.82 542.36 C 1209.79 542.39 1209.76 542.42 1209.73 542.46 C 1200.95 552.38 1193.16 562.22 1186.29 571.93 C 1163.52 607.22 1145.37 659.1 1139.32 735.89 C 1139.16 737.9 1141.8 738.8 1142.9 737.11 C 1227.6 607.33 1307.55 625.55 1341.31 636.63 C 1343.39 637.31 1344.84 634.56 1343.1 633.23 C 1292.79 594.8 1238.95 608.53 1212.39 616.38 C 1211.01 616.79 1209.67 615.6 1209.91 614.18 L 1209.89 614.17 Z"
            style="stroke-linecap: round; stroke-width: 4px; paint-order: stroke; fill: rgb(255, 157, 33); stroke: rgb(255, 255, 255);" />
        <path
            d="M 980.501 524.15 C 991.651 528.46 997.191 541 992.871 552.15 C 988.561 563.3 976.021 568.84 964.861 564.52 C 953.711 560.21 948.171 547.66 952.491 536.51 C 956.811 525.37 969.351 519.83 980.501 524.15 Z"
            style="stroke-linecap: round; stroke-width: 4px; paint-order: stroke; fill: rgb(255, 157, 33); stroke: rgb(255, 255, 255);" />
        <path
            d="M 1031.25 509.8 C 1005.87 545.34 1001.6 585.42 999.731 608.4 C 999.631 609.64 998.261 610.34 997.201 609.7 C 961.481 588.36 929.331 560.31 905.931 533.65 C 904.811 532.37 902.711 533.38 903.021 535.06 C 905.591 548.8 909.911 563.37 916.721 578.47 C 916.741 578.5 916.751 578.54 916.771 578.57 C 923.991 592.56 931.571 605.42 939.381 617.21 C 966.001 653.84 1009.44 692.08 1078.81 728.49 C 1080.3 729.27 1081.9 727.63 1081.05 726.17 C 1058.93 688.39 1027.87 615.45 1034.29 510.88 C 1034.39 509.21 1032.23 508.43 1031.26 509.8 L 1031.25 509.8 Z"
            style="stroke-linecap: round; stroke-width: 4px; paint-order: stroke; fill: rgb(255, 157, 33); stroke: rgb(255, 255, 255);" />
    </g>
</svg>