<svg width="797" height="512" viewBox="0 0 797 512" fill="none" xmlns="http://www.w3.org/2000/svg">
<path d="M784.92 465.5C784.92 465.5 560.7 375.99 398.6 504.01C398.6 504.01 588.85 436.42 796.56 511.26L784.91 465.5H784.92Z" fill="#0D265E"/>
<path d="M768.42 439.26L739.3 387.07C515.08 343.86 403.75 490.95 403.75 490.95C590.79 369.31 768.42 439.26 768.42 439.26Z" fill="#0593FE"/>
<path d="M712.33 368.33L673.29 324.03C455.48 324.03 403.74 478.84 403.74 478.84C493.72 342.9 712.33 368.33 712.33 368.33Z" fill="#FFB92C"/>
<path d="M12.28 465.5L0.630005 511.26C208.35 436.43 398.59 504.01 398.59 504.01C236.49 375.99 12.27 465.5 12.27 465.5H12.28Z" fill="#0D265E"/>
<path d="M393.46 490.95C393.46 490.95 282.13 343.86 57.91 387.07L28.79 439.26C28.79 439.26 206.42 369.31 393.46 490.95Z" fill="#0593FE"/>
<path d="M393.46 478.85C393.46 478.85 341.72 324.04 123.91 324.04L84.87 368.34C84.87 368.34 303.48 342.92 393.46 478.85Z" fill="#FFB92C"/>
<path d="M399.17 374.56C380.87 350.64 292.77 219.56 370.93 1.29C371.67 -0.770001 374.72 -0.220001 374.66 1.97C373.42 48.53 381.61 108.69 401.31 164.02C401.79 165.36 403.51 165.74 404.5 164.72C432.38 136.04 492.16 77.96 586.19 93.82C588.31 94.18 588.33 97.23 586.22 97.61C538.43 106.41 415.33 134.78 402.6 373.48C402.5 375.27 400.24 375.98 399.16 374.56H399.17Z" fill="url(#paint0_linear_9_139)"/>
<path d="M447.54 84.2C447.54 96.87 437.27 107.14 424.6 107.14C411.93 107.14 401.66 96.87 401.66 84.2C401.66 71.53 411.94 61.27 424.6 61.27C437.26 61.27 447.54 71.54 447.54 84.2Z" fill="#FBBB00"/>
<path d="M558.5 210.9C558.5 220.97 550.34 229.12 540.29 229.12C530.24 229.12 522.07 220.97 522.07 210.9C522.07 200.83 530.23 192.69 540.29 192.69C550.35 192.69 558.5 200.84 558.5 210.9Z" fill="#009EE9"/>
<path d="M496.59 249.15C502.41 215.69 514.15 182.99 527.48 157.02C528.38 155.26 526.37 153.43 524.7 154.49C515.26 160.5 505.74 167.98 496.52 177.34C496.49 177.37 496.46 177.4 496.43 177.44C487.65 187.36 479.86 197.2 472.99 206.91C450.22 242.2 432.07 294.08 426.02 370.87C425.86 372.88 428.5 373.78 429.6 372.09C514.3 242.31 594.25 260.53 628.01 271.61C630.09 272.29 631.54 269.54 629.8 268.21C579.49 229.78 525.65 243.51 499.09 251.36C497.71 251.77 496.37 250.58 496.61 249.16L496.59 249.15Z" fill="url(#paint1_linear_9_139)"/>
<path d="M267.2 159.13C278.35 163.44 283.89 175.98 279.57 187.13C275.26 198.28 262.72 203.82 251.56 199.5C240.41 195.19 234.87 182.64 239.19 171.49C243.51 160.35 256.05 154.81 267.2 159.13Z" fill="#2CB200"/>
<path d="M317.95 144.78C292.57 180.32 288.3 220.4 286.43 243.38C286.33 244.62 284.96 245.32 283.9 244.68C248.18 223.34 216.03 195.29 192.63 168.63C191.51 167.35 189.41 168.36 189.72 170.04C192.29 183.78 196.61 198.35 203.42 213.45C203.44 213.48 203.45 213.52 203.47 213.55C210.69 227.54 218.27 240.4 226.08 252.19C252.7 288.82 296.14 327.06 365.51 363.47C367 364.25 368.6 362.61 367.75 361.15C345.63 323.37 314.57 250.43 320.99 145.86C321.09 144.19 318.93 143.41 317.96 144.78H317.95Z" fill="url(#paint2_linear_9_139)"/>
<defs>
<linearGradient id="paint0_linear_9_139" x1="461.39" y1="363.6" x2="463.61" y2="115.48" gradientUnits="userSpaceOnUse">
<stop offset="0.12" stop-color="#FF9D21"/>
<stop offset="0.8" stop-color="#FBBB00"/>
</linearGradient>
<linearGradient id="paint1_linear_9_139" x1="438.49" y1="368.08" x2="571.56" y2="214.63" gradientUnits="userSpaceOnUse">
<stop stop-color="#005CBF"/>
<stop offset="0.76" stop-color="#009EE9"/>
</linearGradient>
<linearGradient id="paint2_linear_9_139" x1="353.3" y1="372.89" x2="278.3" y2="213.62" gradientUnits="userSpaceOnUse">
<stop offset="0.15" stop-color="#078979"/>
<stop offset="1" stop-color="#2CB200"/>
</linearGradient>
</defs>
</svg>
