<?xml version="1.0" encoding="utf-8"?>
<svg xmlns="http://www.w3.org/2000/svg" viewBox="-604.735 -234.3074 1090.4801 153.83"
  width="1090.48px" height="153.83px">
  <g transform="matrix(1, 0, 0, 1, -618.3249206542969, -239.98736572265622)">
    <path class="cls-1"
      d="M134.09,61.43c0,31.02-20.12,53.02-55.96,53.02h-30.18v41.5H13.59V9.24h64.55c35.84,0,55.96,21.8,55.96,52.19ZM99.09,62.27c0-13.2-7.54-23.05-22.84-23.05h-28.71v45.69h28.71c15.3,0,22.84-9.85,22.84-22.63Z"
      style="fill: rgb(255, 255, 255);" />
    <path class="cls-1"
      d="M203.68,107.53h-13.41v48.41h-34.37V9.24h64.55c31.44,0,53.44,19.91,53.44,49.04,0,22.42-12.57,39.19-33.53,46.11l41.71,51.56h-40.87l-37.51-48.41ZM216.67,37.74h-26.62v43.17h26.62c14.88,0,23.05-7.54,23.05-20.96,0-14.25-8.17-22.22-23.05-22.22Z"
      style="fill: rgb(255, 255, 255);" />
    <path class="cls-1"
      d="M292.96,83.22c0-46.74,31.44-77.54,79.85-77.54s77.96,30.18,77.96,76.29-31.44,77.54-80.06,77.54-77.75-30.18-77.75-76.29ZM416.19,83.22c0-28.71-17.81-47.57-44.01-47.57s-44.64,19.07-44.64,46.32c0,28.71,17.6,47.36,43.8,47.36s44.85-18.23,44.85-46.11Z"
      style="fill: rgb(255, 255, 255);" />
    <path class="cls-1"
      d="M583.65,127.03v28.92h-107.72V9.24h105.42v28.5h-72.1v29.97h68.11v27.66h-68.11v31.65h74.4Z"
      style="fill: rgb(255, 255, 255);" />
    <path class="cls-1"
      d="M772.69,9.24v146.71h-33.95v-65.18c0-9.43.63-20.96,1.47-28.5l-.84-.42c-3.14,6.08-8.59,14.88-15.3,24.1l-28.5,40.45h-7.54l-28.29-40.24c-6.5-9.01-12.37-17.81-15.51-24.1l-.84.42c.84,7.54,1.68,19.07,1.68,28.5v64.97h-33.95V9.24h32.07l49.04,70,48.62-70h31.86Z"
      style="fill: rgb(255, 255, 255);" />
    <path class="cls-1"
      d="M915,127.03v28.92h-107.72V9.24h105.42v28.5h-72.1v29.97h68.11v27.66h-68.11v31.65h74.4Z"
      style="fill: rgb(255, 255, 255);" />
    <path class="cls-1"
      d="M1104.05,9.24v146.71h-33.95v-65.18c0-9.43.63-20.96,1.47-28.5l-.84-.42c-3.14,6.08-8.59,14.88-15.3,24.1l-28.5,40.45h-7.54l-28.29-40.24c-6.5-9.01-12.37-17.81-15.51-24.1l-.84.42c.84,7.54,1.68,19.07,1.68,28.5v64.97h-33.95V9.24h32.07l49.04,70,48.62-70h31.86Z"
      style="fill: rgb(255, 255, 255);" />
  </g>
</svg>