<?xml version="1.0" encoding="UTF-8"?>
<svg id="Camada_1" data-name="Camada 1" xmlns="http://www.w3.org/2000/svg" viewBox="0 0 1305.7 301.43">
  <defs>
    <style>
      .cls-1 {
        fill: #fff;
      }
    </style>
  </defs>
  <g>
    <path class="cls-1" d="M134.09,61.43c0,31.02-20.12,53.02-55.96,53.02h-30.18v41.5H13.59V9.24h64.55c35.84,0,55.96,21.8,55.96,52.19ZM99.09,62.27c0-13.2-7.54-23.05-22.84-23.05h-28.71v45.69h28.71c15.3,0,22.84-9.85,22.84-22.63Z"/>
    <path class="cls-1" d="M203.68,107.53h-13.41v48.41h-34.37V9.24h64.55c31.44,0,53.44,19.91,53.44,49.04,0,22.42-12.57,39.19-33.53,46.11l41.71,51.56h-40.87l-37.51-48.41ZM216.67,37.74h-26.62v43.17h26.62c14.88,0,23.05-7.54,23.05-20.96,0-14.25-8.17-22.22-23.05-22.22Z"/>
    <path class="cls-1" d="M292.96,83.22c0-46.74,31.44-77.54,79.85-77.54s77.96,30.18,77.96,76.29-31.44,77.54-80.06,77.54-77.75-30.18-77.75-76.29ZM416.19,83.22c0-28.71-17.81-47.57-44.01-47.57s-44.64,19.07-44.64,46.32c0,28.71,17.6,47.36,43.8,47.36s44.85-18.23,44.85-46.11Z"/>
    <path class="cls-1" d="M583.65,127.03v28.92h-107.72V9.24h105.42v28.5h-72.1v29.97h68.11v27.66h-68.11v31.65h74.4Z"/>
    <path class="cls-1" d="M772.69,9.24v146.71h-33.95v-65.18c0-9.43.63-20.96,1.47-28.5l-.84-.42c-3.14,6.08-8.59,14.88-15.3,24.1l-28.5,40.45h-7.54l-28.29-40.24c-6.5-9.01-12.37-17.81-15.51-24.1l-.84.42c.84,7.54,1.68,19.07,1.68,28.5v64.97h-33.95V9.24h32.07l49.04,70,48.62-70h31.86Z"/>
    <path class="cls-1" d="M915,127.03v28.92h-107.72V9.24h105.42v28.5h-72.1v29.97h68.11v27.66h-68.11v31.65h74.4Z"/>
    <path class="cls-1" d="M1104.05,9.24v146.71h-33.95v-65.18c0-9.43.63-20.96,1.47-28.5l-.84-.42c-3.14,6.08-8.59,14.88-15.3,24.1l-28.5,40.45h-7.54l-28.29-40.24c-6.5-9.01-12.37-17.81-15.51-24.1l-.84.42c.84,7.54,1.68,19.07,1.68,28.5v64.97h-33.95V9.24h32.07l49.04,70,48.62-70h31.86Z"/>
    <path class="cls-1" d="M1187.67,9.24h34.37v146.71h-34.37V9.24Z"/>
    <path class="cls-1" d="M1256.42,9.24h34.37v146.71h-34.37V9.24Z"/>
  </g>
  <g>
    <path class="cls-1" d="M131.56,216.94c0,7.5-5.1,12.45-12.91,12.45h-10.66v10.82h-5.97v-35.72h16.63c7.81,0,12.91,4.95,12.91,12.45ZM125.65,216.94c0-4.23-2.91-6.99-7.3-6.99h-10.41v14.03h10.41c4.39,0,7.3-2.76,7.3-7.04Z"/>
    <path class="cls-1" d="M155.34,216.68l-2.55,4.64c-1.43-.97-2.7-1.38-4.24-1.38-4.08,0-6.68,3.01-6.68,7.96v12.3h-5.71v-25.21h5.1l.05,3.88c1.99-3.06,4.49-4.39,7.65-4.39,2.45,0,4.85.82,6.38,2.19Z"/>
    <path class="cls-1" d="M156.41,227.6c0-7.55,5.25-13.17,13.47-13.17s13.42,5.61,13.42,13.17-5.25,13.16-13.42,13.16-13.47-5.61-13.47-13.16ZM177.59,227.6c0-4.39-3.01-7.96-7.7-7.96s-7.76,3.57-7.76,7.96,3.01,7.96,7.76,7.96,7.7-3.57,7.7-7.96Z"/>
    <path class="cls-1" d="M180.8,251.07l1.89-4.34c1.02.51,1.99.77,2.86.77,2.3,0,3.11-1.22,3.11-4.59v-27.91h5.71v27.91c0,6.63-2.65,9.75-8.16,9.75-1.99,0-3.72-.51-5.41-1.58ZM187.84,207.75c0-2.09,1.53-3.57,3.67-3.57s3.67,1.48,3.67,3.57-1.53,3.47-3.67,3.47-3.67-1.48-3.67-3.47Z"/>
    <path class="cls-1" d="M225.7,229.75h-20.16c.46,3.67,3.52,6.02,7.96,6.02,2.86,0,5.71-1.02,7.25-2.6l3.47,3.37c-2.5,2.7-6.53,4.39-10.87,4.39-8.32,0-13.67-5.26-13.67-13.32s5.26-13.11,13.06-13.11c8.88,0,13.78,5.82,12.96,15.26ZM205.6,225.31h14.64c-.41-3.57-3.16-5.87-7.35-5.87s-6.58,2.14-7.3,5.87Z"/>
    <path class="cls-1" d="M247.59,239.34c-1.94.87-3.57,1.22-5.66,1.22-5.21,0-8.27-3.01-8.27-9.03v-11.68h-4.75v-4.85h4.75v-6.58l5.66-.61v7.19h7.25v4.85h-7.25v11.68c0,2.55,1.17,3.98,3.52,3.98,1.02,0,2.19-.31,3.16-.77l1.58,4.59Z"/>
    <path class="cls-1" d="M250.19,227.6c0-7.55,5.26-13.17,13.47-13.17s13.42,5.61,13.42,13.17-5.26,13.16-13.42,13.16-13.47-5.61-13.47-13.16ZM271.36,227.6c0-4.39-3.01-7.96-7.71-7.96s-7.76,3.57-7.76,7.96,3.01,7.96,7.76,7.96,7.71-3.57,7.71-7.96Z"/>
    <path class="cls-1" d="M320.19,204.49v35.72h-5.1l-.05-3.37c-1.94,2.45-5.31,3.93-9.29,3.93-7.14,0-12.4-5.2-12.4-13.16s5.25-13.17,12.4-13.17c3.62,0,6.74,1.22,8.73,3.27v-13.22h5.71ZM314.48,227.6c0-4.69-3.16-7.96-7.71-7.96s-7.7,3.27-7.7,7.96,3.16,7.96,7.7,7.96,7.71-3.27,7.71-7.96Z"/>
    <path class="cls-1" d="M351.52,229.75h-20.16c.46,3.67,3.52,6.02,7.96,6.02,2.86,0,5.71-1.02,7.25-2.6l3.47,3.37c-2.5,2.7-6.53,4.39-10.87,4.39-8.32,0-13.67-5.26-13.67-13.32s5.25-13.11,13.06-13.11c8.88,0,13.78,5.82,12.96,15.26ZM331.42,225.31h14.64c-.41-3.57-3.16-5.87-7.35-5.87s-6.58,2.14-7.3,5.87Z"/>
    <path class="cls-1" d="M396.83,234.75v5.46h-26.58v-35.72h26.28v5.41h-20.36v9.54h19.49v5.31h-19.49v10h20.67Z"/>
    <path class="cls-1" d="M425.65,240.21h-6.79l-3.27-4.9-2.7-4.18-2.75,4.18-3.42,4.9h-6.63l9.03-13.01-8.47-12.2h6.79l3.57,5.26,1.89,3.06,1.94-3.06,3.57-5.26h6.68l-8.47,12.2,9.03,13.01Z"/>
    <path class="cls-1" d="M456.42,227.6c0,7.76-5.1,13.16-12.5,13.16-3.52,0-6.63-1.22-8.62-3.32v14.39h-5.71v-36.84h5.1l.05,3.37c1.94-2.45,5.31-3.93,9.18-3.93,7.4,0,12.5,5.41,12.5,13.17ZM450.7,227.6c0-4.69-3.16-7.96-7.71-7.96s-7.71,3.27-7.71,7.96,3.21,7.96,7.71,7.96,7.71-3.27,7.71-7.96Z"/>
    <path class="cls-1" d="M486.93,215v25.21h-5.1l-.05-3.37c-1.94,2.45-5.31,3.93-9.18,3.93-7.4,0-12.5-5.41-12.5-13.16s5.1-13.17,12.5-13.17c3.93,0,7.25,1.48,9.18,3.93l.05-3.37h5.1ZM481.22,227.6c0-4.69-3.16-7.96-7.71-7.96s-7.71,3.27-7.71,7.96,3.16,7.96,7.71,7.96,7.71-3.27,7.71-7.96Z"/>
    <path class="cls-1" d="M518.51,226.28v13.93h-5.71v-13.57c0-4.44-2.3-6.99-6.12-6.99-4.18,0-7.09,3.06-7.09,7.3v13.27h-5.71v-25.21h5.1l.05,3.32c2.14-2.55,5.21-3.83,8.73-3.83,6.48,0,10.77,4.59,10.77,11.79Z"/>
    <path class="cls-1" d="M523.2,237.09l2.65-4.13c2.25,1.79,5.56,2.81,8.88,2.81s5.05-1.02,5.05-2.86-1.63-2.65-5.51-3.06c-6.58-.61-10.31-3.37-10.31-7.76s4.39-7.71,10.92-7.71c3.83,0,7.19.97,10,2.91l-2.5,4.08c-2.25-1.43-4.64-2.14-7.25-2.14-3.62,0-5.56,1.02-5.56,2.86,0,1.63,1.48,2.5,5.15,2.91,7.45.82,10.72,3.21,10.72,7.96s-4.34,7.86-10.87,7.86c-4.23,0-8.01-1.22-11.38-3.73Z"/>
    <path class="cls-1" d="M575.5,215v25.21h-5.1l-.05-3.37c-1.94,2.45-5.31,3.93-9.18,3.93-7.4,0-12.5-5.41-12.5-13.16s5.1-13.17,12.5-13.17c3.93,0,7.25,1.48,9.18,3.93l.05-3.37h5.1ZM569.79,227.6c0-4.69-3.16-7.96-7.71-7.96s-7.71,3.27-7.71,7.96,3.16,7.96,7.71,7.96,7.71-3.27,7.71-7.96ZM558,210.76l-3.27-1.84c.87-2.6,2.55-4.39,5-4.39,1.12,0,2.19.51,3.27,1.07.92.46,1.79.87,2.6.87.87,0,1.63-.46,1.99-1.63l3.47,1.48c-.61,3.37-2.76,4.54-4.85,4.54-1.38,0-2.45-.51-3.47-1.02-.82-.41-1.58-.82-2.4-.82-.92,0-1.79.46-2.35,1.73Z"/>
    <path class="cls-1" d="M580.81,227.6c0-7.55,5.26-13.17,13.47-13.17s13.42,5.61,13.42,13.17-5.26,13.16-13.42,13.16-13.47-5.61-13.47-13.16ZM601.98,227.6c0-4.39-3.01-7.96-7.71-7.96s-7.76,3.57-7.76,7.96,3.01,7.96,7.76,7.96,7.71-3.57,7.71-7.96Z"/>
    <path class="cls-1" d="M650,229.75h-20.16c.46,3.67,3.52,6.02,7.96,6.02,2.86,0,5.71-1.02,7.25-2.6l3.47,3.37c-2.5,2.7-6.53,4.39-10.87,4.39-8.32,0-13.67-5.26-13.67-13.32s5.25-13.11,13.06-13.11c8.88,0,13.78,5.82,12.96,15.26ZM629.89,225.31h14.64c-.41-3.57-3.16-5.87-7.35-5.87s-6.58,2.14-7.3,5.87Z"/>
    <path class="cls-1" d="M706.63,204.49v35.72h-5.92v-25.61l-12.4,15.72h-1.28l-12.35-15.67v25.56h-5.97v-35.72h5.41l13.57,17.3,13.57-17.3h5.36Z"/>
    <path class="cls-1" d="M738.31,229.75h-20.16c.46,3.67,3.52,6.02,7.96,6.02,2.86,0,5.71-1.02,7.25-2.6l3.47,3.37c-2.5,2.7-6.53,4.39-10.87,4.39-8.32,0-13.67-5.26-13.67-13.32s5.26-13.11,13.06-13.11c8.88,0,13.78,5.82,12.96,15.26ZM718.21,225.31h14.64c-.41-3.57-3.16-5.87-7.35-5.87s-6.58,2.14-7.3,5.87Z"/>
    <path class="cls-1" d="M743.52,204.49h5.71v35.72h-5.71v-35.72Z"/>
    <path class="cls-1" d="M780.87,226.28v13.93h-5.71v-13.57c0-4.44-2.3-6.99-6.12-6.99-4.18,0-7.09,3.06-7.09,7.3v13.27h-5.71v-35.72h5.71v13.47c2.04-2.3,4.8-3.47,8.16-3.47,6.58,0,10.77,4.64,10.77,11.79Z"/>
    <path class="cls-1" d="M785.76,227.6c0-7.55,5.26-13.17,13.47-13.17s13.42,5.61,13.42,13.17-5.26,13.16-13.42,13.16-13.47-5.61-13.47-13.16ZM806.94,227.6c0-4.39-3.01-7.96-7.71-7.96s-7.76,3.57-7.76,7.96,3.01,7.96,7.76,7.96,7.71-3.57,7.71-7.96Z"/>
    <path class="cls-1" d="M837.14,216.68l-2.55,4.64c-1.43-.97-2.71-1.38-4.24-1.38-4.08,0-6.68,3.01-6.68,7.96v12.3h-5.71v-25.21h5.1l.05,3.88c1.99-3.06,4.49-4.39,7.65-4.39,2.45,0,4.85.82,6.38,2.19Z"/>
    <path class="cls-1" d="M839.79,207.75c0-2.09,1.53-3.57,3.62-3.57,2.19,0,3.72,1.48,3.72,3.57s-1.53,3.47-3.72,3.47-3.62-1.48-3.62-3.47ZM840.56,215h5.71v25.21h-5.71v-25.21Z"/>
    <path class="cls-1" d="M878.47,215v25.21h-5.1l-.05-3.37c-1.94,2.45-5.31,3.93-9.18,3.93-7.4,0-12.5-5.41-12.5-13.16s5.1-13.17,12.5-13.17c3.93,0,7.25,1.48,9.18,3.93l.05-3.37h5.1ZM872.76,227.6c0-4.69-3.16-7.96-7.71-7.96s-7.71,3.27-7.71,7.96,3.16,7.96,7.71,7.96,7.71-3.27,7.71-7.96Z"/>
    <path class="cls-1" d="M925.51,234.75v5.46h-26.58v-35.72h26.28v5.41h-20.36v9.54h19.49v5.31h-19.49v10h20.67Z"/>
    <path class="cls-1" d="M956.48,204.49v35.72h-5.1l-.05-3.37c-1.94,2.45-5.31,3.93-9.29,3.93-7.14,0-12.4-5.2-12.4-13.16s5.26-13.17,12.4-13.17c3.62,0,6.74,1.22,8.73,3.27v-13.22h5.71ZM950.77,227.6c0-4.69-3.16-7.96-7.71-7.96s-7.71,3.27-7.71,7.96,3.16,7.96,7.71,7.96,7.71-3.27,7.71-7.96Z"/>
    <path class="cls-1" d="M987.4,215v25.21h-5.1l-.05-3.27c-2.14,2.5-5.1,3.78-8.57,3.78-6.43,0-10.61-4.59-10.61-11.79v-13.93h5.71v13.57c0,4.44,2.25,6.99,5.92,6.99,4.18,0,6.99-3.06,6.99-7.3v-13.27h5.71Z"/>
    <path class="cls-1" d="M992.7,227.6c0-7.81,5.41-13.17,13.42-13.17,3.67,0,6.84,1.28,9.54,3.88l-3.47,3.73c-1.53-1.53-3.73-2.4-5.97-2.4-4.59,0-7.81,3.27-7.81,7.96s3.16,7.96,7.81,7.96c2.45,0,4.69-.92,6.23-2.6l3.52,3.83c-2.81,2.7-5.92,3.98-9.8,3.98-8.16,0-13.47-5.2-13.47-13.16Z"/>
    <path class="cls-1" d="M1045.16,215v25.21h-5.1l-.05-3.37c-1.94,2.45-5.31,3.93-9.18,3.93-7.4,0-12.5-5.41-12.5-13.16s5.1-13.17,12.5-13.17c3.93,0,7.25,1.48,9.18,3.93l.05-3.37h5.1ZM1039.44,227.6c0-4.69-3.16-7.96-7.71-7.96s-7.7,3.27-7.7,7.96,3.16,7.96,7.7,7.96,7.71-3.27,7.71-7.96Z"/>
    <path class="cls-1" d="M1050.46,227.6c0-7.81,5.41-13.17,13.42-13.17,3.67,0,6.84,1.28,9.54,3.88l-3.47,3.73c-1.53-1.53-3.72-2.4-5.97-2.4-4.59,0-7.81,3.27-7.81,7.96s3.16,7.96,7.81,7.96c2.45,0,4.69-.92,6.22-2.6l3.52,3.83c-2.81,2.7-5.92,3.98-9.8,3.98-8.16,0-13.47-5.2-13.47-13.16Z"/>
    <path class="cls-1" d="M1077.55,207.75c0-2.09,1.53-3.57,3.62-3.57,2.19,0,3.72,1.48,3.72,3.57s-1.53,3.47-3.72,3.47-3.62-1.48-3.62-3.47ZM1078.32,215h5.71v25.21h-5.71v-25.21Z"/>
    <path class="cls-1" d="M1089.39,227.6c0-7.55,5.26-13.17,13.47-13.17s13.42,5.61,13.42,13.17-5.26,13.16-13.42,13.16-13.47-5.61-13.47-13.16ZM1110.57,227.6c0-4.39-3.01-7.96-7.71-7.96s-7.76,3.57-7.76,7.96,3.01,7.96,7.76,7.96,7.71-3.57,7.71-7.96Z"/>
    <path class="cls-1" d="M1146.23,226.28v13.93h-5.71v-13.57c0-4.44-2.3-6.99-6.12-6.99-4.18,0-7.09,3.06-7.09,7.3v13.27h-5.71v-25.21h5.1l.05,3.32c2.14-2.55,5.21-3.83,8.73-3.83,6.48,0,10.77,4.59,10.77,11.79Z"/>
    <path class="cls-1" d="M1177.97,215v25.21h-5.1l-.05-3.37c-1.94,2.45-5.31,3.93-9.18,3.93-7.4,0-12.5-5.41-12.5-13.16s5.1-13.17,12.5-13.17c3.93,0,7.25,1.48,9.18,3.93l.05-3.37h5.1ZM1172.25,227.6c0-4.69-3.16-7.96-7.71-7.96s-7.71,3.27-7.71,7.96,3.16,7.96,7.71,7.96,7.71-3.27,7.71-7.96Z"/>
    <path class="cls-1" d="M1184.9,204.49h5.71v35.72h-5.71v-35.72Z"/>
    <path class="cls-1" d="M214.55,265.71v35.72h-5.1l-.05-3.37c-1.94,2.45-5.31,3.93-9.29,3.93-7.14,0-12.4-5.2-12.4-13.16s5.26-13.17,12.4-13.17c3.62,0,6.74,1.22,8.73,3.27v-13.22h5.71ZM208.84,288.83c0-4.69-3.16-7.96-7.71-7.96s-7.71,3.27-7.71,7.96,3.16,7.96,7.71,7.96,7.71-3.27,7.71-7.96Z"/>
    <path class="cls-1" d="M246.7,276.23v25.21h-5.1l-.05-3.37c-1.94,2.45-5.31,3.93-9.18,3.93-7.4,0-12.5-5.41-12.5-13.16s5.1-13.17,12.5-13.17c3.93,0,7.25,1.48,9.18,3.93l.05-3.37h5.1ZM240.98,288.83c0-4.69-3.16-7.96-7.71-7.96s-7.71,3.27-7.71,7.96,3.16,7.96,7.71,7.96,7.71-3.27,7.71-7.96Z"/>
    <path class="cls-1" d="M280.37,289.24h-7.25v12.19h-5.97v-35.72h16.74c7.65,0,12.65,4.69,12.65,11.79,0,5.92-3.52,10.15-9.24,11.38l10.87,12.55h-7.45l-10.36-12.19ZM283.84,271.23h-10.77v12.55h10.77c4.24,0,6.79-2.35,6.79-6.28s-2.55-6.28-6.79-6.28Z"/>
    <path class="cls-1" d="M326.14,290.97h-20.16c.46,3.67,3.52,6.02,7.96,6.02,2.86,0,5.71-1.02,7.25-2.6l3.47,3.37c-2.5,2.7-6.53,4.39-10.87,4.39-8.32,0-13.67-5.26-13.67-13.32s5.26-13.11,13.06-13.11c8.88,0,13.78,5.82,12.96,15.26ZM306.03,286.53h14.64c-.41-3.57-3.16-5.87-7.35-5.87s-6.58,2.14-7.3,5.87Z"/>
    <path class="cls-1" d="M356.55,265.71v35.72h-5.1l-.05-3.37c-1.94,2.45-5.31,3.93-9.29,3.93-7.14,0-12.4-5.2-12.4-13.16s5.25-13.17,12.4-13.17c3.62,0,6.74,1.22,8.73,3.27v-13.22h5.71ZM350.83,288.83c0-4.69-3.16-7.96-7.71-7.96s-7.7,3.27-7.7,7.96,3.16,7.96,7.7,7.96,7.71-3.27,7.71-7.96Z"/>
    <path class="cls-1" d="M387.87,290.97h-20.16c.46,3.67,3.52,6.02,7.96,6.02,2.86,0,5.71-1.02,7.25-2.6l3.47,3.37c-2.5,2.7-6.53,4.39-10.87,4.39-8.32,0-13.67-5.26-13.67-13.32s5.25-13.11,13.06-13.11c8.88,0,13.78,5.82,12.96,15.26ZM367.77,286.53h14.64c-.41-3.57-3.16-5.87-7.35-5.87s-6.58,2.14-7.3,5.87Z"/>
    <path class="cls-1" d="M436.14,278.16c0,7.5-5.1,12.45-12.91,12.45h-10.67v10.82h-5.97v-35.72h16.63c7.81,0,12.91,4.95,12.91,12.45ZM430.22,278.16c0-4.23-2.91-6.99-7.3-6.99h-10.41v14.03h10.41c4.39,0,7.3-2.76,7.3-7.04Z"/>
    <path class="cls-1" d="M464.97,276.23v25.21h-5.1l-.05-3.27c-2.14,2.5-5.1,3.78-8.57,3.78-6.43,0-10.61-4.59-10.61-11.79v-13.93h5.71v13.57c0,4.44,2.25,6.99,5.92,6.99,4.18,0,6.99-3.06,6.99-7.3v-13.27h5.71ZM454.66,272.81h-5.15l3.57-7.09h6.84l-5.26,7.09Z"/>
    <path class="cls-1" d="M498.74,288.83c0,7.96-5.26,13.16-12.4,13.16-3.98,0-7.35-1.48-9.29-3.93l-.05,3.37h-5.1v-35.72h5.71v13.22c1.99-2.04,5.1-3.27,8.72-3.27,7.14,0,12.4,5.21,12.4,13.17ZM493.03,288.83c0-4.69-3.16-7.96-7.71-7.96s-7.7,3.27-7.7,7.96,3.21,7.96,7.7,7.96,7.71-3.27,7.71-7.96Z"/>
    <path class="cls-1" d="M504.05,265.71h5.71v35.72h-5.71v-35.72Z"/>
    <path class="cls-1" d="M515.98,268.98c0-2.09,1.53-3.57,3.62-3.57s3.72,1.48,3.72,3.57-1.53,3.47-3.72,3.47-3.62-1.48-3.62-3.47ZM516.75,276.23h5.71v25.21h-5.71v-25.21Z"/>
    <path class="cls-1" d="M527.82,288.83c0-7.81,5.41-13.17,13.42-13.17,3.67,0,6.84,1.28,9.54,3.88l-3.47,3.73c-1.53-1.53-3.72-2.4-5.97-2.4-4.59,0-7.81,3.27-7.81,7.96s3.16,7.96,7.81,7.96c2.45,0,4.69-.92,6.22-2.6l3.52,3.83c-2.81,2.7-5.92,3.98-9.8,3.98-8.16,0-13.47-5.2-13.47-13.16Z"/>
    <path class="cls-1" d="M580.27,276.23v25.21h-5.1l-.05-3.37c-1.94,2.45-5.31,3.93-9.18,3.93-7.4,0-12.5-5.41-12.5-13.16s5.1-13.17,12.5-13.17c3.93,0,7.25,1.48,9.18,3.93l.05-3.37h5.1ZM574.56,288.83c0-4.69-3.16-7.96-7.71-7.96s-7.7,3.27-7.7,7.96,3.16,7.96,7.7,7.96,7.71-3.27,7.71-7.96Z"/>
    <path class="cls-1" d="M638.64,265.71v35.72h-5.92v-25.61l-12.4,15.72h-1.28l-12.35-15.67v25.56h-5.97v-35.72h5.41l13.57,17.3,13.57-17.3h5.36Z"/>
    <path class="cls-1" d="M670.28,276.23v25.21h-5.1l-.05-3.27c-2.14,2.5-5.1,3.78-8.57,3.78-6.43,0-10.61-4.59-10.61-11.79v-13.93h5.71v13.57c0,4.44,2.25,6.99,5.92,6.99,4.18,0,6.99-3.06,6.99-7.3v-13.27h5.71Z"/>
    <path class="cls-1" d="M701.86,287.5v13.93h-5.71v-13.57c0-4.44-2.3-6.99-6.12-6.99-4.18,0-7.09,3.06-7.09,7.3v13.27h-5.71v-25.21h5.1l.05,3.32c2.14-2.55,5.2-3.83,8.73-3.83,6.48,0,10.77,4.59,10.77,11.79Z"/>
    <path class="cls-1" d="M707.62,268.98c0-2.09,1.53-3.57,3.62-3.57,2.19,0,3.72,1.48,3.72,3.57s-1.53,3.47-3.72,3.47-3.62-1.48-3.62-3.47ZM708.39,276.23h5.71v25.21h-5.71v-25.21Z"/>
    <path class="cls-1" d="M719.46,288.83c0-7.81,5.41-13.17,13.42-13.17,3.67,0,6.84,1.28,9.54,3.88l-3.47,3.73c-1.53-1.53-3.73-2.4-5.97-2.4-4.59,0-7.81,3.27-7.81,7.96s3.16,7.96,7.81,7.96c2.45,0,4.69-.92,6.23-2.6l3.52,3.83c-2.81,2.7-5.92,3.98-9.8,3.98-8.16,0-13.47-5.2-13.47-13.16Z"/>
    <path class="cls-1" d="M746.55,268.98c0-2.09,1.53-3.57,3.62-3.57s3.72,1.48,3.72,3.57-1.53,3.47-3.72,3.47-3.62-1.48-3.62-3.47ZM747.32,276.23h5.71v25.21h-5.71v-25.21Z"/>
    <path class="cls-1" d="M786.86,288.83c0,7.76-5.1,13.16-12.5,13.16-3.52,0-6.63-1.22-8.62-3.32v14.39h-5.71v-36.84h5.1l.05,3.37c1.94-2.45,5.31-3.93,9.18-3.93,7.4,0,12.5,5.41,12.5,13.17ZM781.15,288.83c0-4.69-3.16-7.96-7.71-7.96s-7.7,3.27-7.7,7.96,3.21,7.96,7.7,7.96,7.71-3.27,7.71-7.96Z"/>
    <path class="cls-1" d="M817.37,276.23v25.21h-5.1l-.05-3.37c-1.94,2.45-5.31,3.93-9.18,3.93-7.4,0-12.5-5.41-12.5-13.16s5.1-13.17,12.5-13.17c3.93,0,7.25,1.48,9.18,3.93l.05-3.37h5.1ZM811.66,288.83c0-4.69-3.16-7.96-7.71-7.96s-7.7,3.27-7.7,7.96,3.16,7.96,7.7,7.96,7.71-3.27,7.71-7.96Z"/>
    <path class="cls-1" d="M824.31,265.71h5.71v35.72h-5.71v-35.72Z"/>
    <path class="cls-1" d="M874.82,265.71v35.72h-5.1l-.05-3.37c-1.94,2.45-5.31,3.93-9.29,3.93-7.14,0-12.4-5.2-12.4-13.16s5.26-13.17,12.4-13.17c3.62,0,6.74,1.22,8.73,3.27v-13.22h5.71ZM869.11,288.83c0-4.69-3.16-7.96-7.71-7.96s-7.71,3.27-7.71,7.96,3.16,7.96,7.71,7.96,7.71-3.27,7.71-7.96Z"/>
    <path class="cls-1" d="M906.15,290.97h-20.16c.46,3.67,3.52,6.02,7.96,6.02,2.86,0,5.71-1.02,7.25-2.6l3.47,3.37c-2.5,2.7-6.53,4.39-10.87,4.39-8.32,0-13.67-5.26-13.67-13.32s5.26-13.11,13.06-13.11c8.88,0,13.78,5.82,12.96,15.26ZM886.04,286.53h14.64c-.41-3.57-3.16-5.87-7.35-5.87s-6.58,2.14-7.3,5.87Z"/>
    <path class="cls-1" d="M962.78,265.71v35.72h-5.92v-25.61l-12.4,15.72h-1.28l-12.35-15.67v25.56h-5.97v-35.72h5.41l13.57,17.3,13.57-17.3h5.36Z"/>
    <path class="cls-1" d="M995.28,276.23v25.21h-5.1l-.05-3.37c-1.94,2.45-5.31,3.93-9.18,3.93-7.4,0-12.5-5.41-12.5-13.16s5.1-13.17,12.5-13.17c3.93,0,7.25,1.48,9.18,3.93l.05-3.37h5.1ZM989.57,288.83c0-4.69-3.16-7.96-7.71-7.96s-7.71,3.27-7.71,7.96,3.16,7.96,7.71,7.96,7.71-3.27,7.71-7.96Z"/>
    <path class="cls-1" d="M1026.86,287.5v13.93h-5.71v-13.57c0-4.44-2.3-6.99-6.12-6.99-4.18,0-7.09,3.06-7.09,7.3v13.27h-5.71v-25.21h5.1l.05,3.32c2.14-2.55,5.2-3.83,8.73-3.83,6.48,0,10.77,4.59,10.77,11.79Z"/>
    <path class="cls-1" d="M1058.6,276.23v25.21h-5.1l-.05-3.37c-1.94,2.45-5.31,3.93-9.18,3.93-7.4,0-12.5-5.41-12.5-13.16s5.1-13.17,12.5-13.17c3.93,0,7.25,1.48,9.18,3.93l.05-3.37h5.1ZM1052.89,288.83c0-4.69-3.16-7.96-7.71-7.96s-7.71,3.27-7.71,7.96,3.16,7.96,7.71,7.96,7.71-3.27,7.71-7.96Z"/>
    <path class="cls-1" d="M1089.52,276.23v25.21h-5.1l-.05-3.27c-2.14,2.5-5.1,3.78-8.57,3.78-6.43,0-10.61-4.59-10.61-11.79v-13.93h5.71v13.57c0,4.44,2.25,6.99,5.92,6.99,4.18,0,6.99-3.06,6.99-7.3v-13.27h5.71Z"/>
    <path class="cls-1" d="M1094.62,298.32l2.65-4.13c2.25,1.79,5.56,2.81,8.88,2.81s5.05-1.02,5.05-2.86-1.63-2.65-5.51-3.06c-6.58-.61-10.31-3.37-10.31-7.76s4.39-7.71,10.92-7.71c3.83,0,7.2.97,10,2.91l-2.5,4.08c-2.25-1.43-4.64-2.14-7.25-2.14-3.62,0-5.56,1.02-5.56,2.86,0,1.63,1.48,2.5,5.15,2.91,7.45.82,10.71,3.21,10.71,7.96s-4.34,7.86-10.87,7.86c-4.24,0-8.01-1.22-11.38-3.73Z"/>
  </g>
</svg>